<svg width="32" height="32" fill="none" xmlns="http://www.w3.org/2000/svg"><circle cx="16" cy="16" r="16" fill="#fff"/><path d="M23.583 12.499h-.888l-1.842-5.07A2.174 2.174 0 0 0 18.817 6h-1.734C16.488 6 16 6.487 16 7.083s.488 1.083 1.083 1.083h1.734l1.581 4.333h-5.21l-.39-1.083h.097c.596 0 1.083-.488 1.083-1.084 0-.595-.487-1.083-1.083-1.083h-3.228c-.596 0-1.084.488-1.084 1.083 0 .596.488 1.084 1.084 1.084h.812l1.972 5.415h-.726c-.477-2.415-2.502-4.202-5.037-4.321C5.654 12.358 3 14.882 3 17.914c0 3.033 2.383 5.416 5.417 5.416 2.665 0 4.82-1.83 5.308-4.332h4.55c.477 2.415 2.503 4.202 5.038 4.321C26.346 23.46 29 20.947 29 17.904c0-3.022-2.383-5.405-5.417-5.405ZM9.5 18.997h1.972c-.455 1.333-1.734 2.253-3.272 2.156-1.614-.098-2.957-1.462-3.033-3.087-.076-1.895 1.376-3.401 3.25-3.401 1.44 0 2.621.899 3.055 2.166H9.5c-.596 0-1.083.488-1.083 1.083 0 .596.487 1.083 1.083 1.083Zm8.775-2.166h-1.517l-.79-2.166h3.282a5.127 5.127 0 0 0-.975 2.166Zm5.178 4.333c-1.668-.065-3.076-1.484-3.12-3.163a3.23 3.23 0 0 1 1.138-2.556l.671 1.841a1.08 1.08 0 0 0 1.387.65 1.08 1.08 0 0 0 .65-1.386l-.682-1.874.01-.011a3.217 3.217 0 0 1 3.326 3.25c0 1.862-1.495 3.314-3.38 3.249Z" fill="url(#a)"/><defs><linearGradient id="a" x1="16" y1="6" x2="16" y2="23.33" gradientUnits="userSpaceOnUse"><stop stop-color="#FFB60D"/><stop offset="1" stop-color="#E59317"/></linearGradient></defs></svg>