<svg width="32" height="21" fill="none" xmlns="http://www.w3.org/2000/svg"><path d="M31.33 3.28A3.692 3.692 0 0 0 30.298 1.6 4.096 4.096 0 0 0 28.5.627C26.007 0 16 0 16 0S5.993 0 3.497.627a4.098 4.098 0 0 0-1.794.974A3.694 3.694 0 0 0 .669 3.28C0 5.62 0 10.5 0 10.5s0 4.88.67 7.22c.18.635.537 1.213 1.033 1.679a4.098 4.098 0 0 0 1.796.974C5.993 21 16 21 16 21s10.007 0 12.503-.627a4.096 4.096 0 0 0 1.795-.974 3.692 3.692 0 0 0 1.034-1.679C32 15.38 32 10.5 32 10.5s0-4.88-.67-7.22ZM12.728 14.93V6.069L21.09 10.5l-8.364 4.431Z" fill="url(#a)"/><defs><linearGradient id="a" x1="16" y1="0" x2="16" y2="21" gradientUnits="userSpaceOnUse"><stop stop-color="#FFBF00"/><stop offset="1" stop-color="#F2A60C"/></linearGradient></defs></svg>