<svg width="32" height="31" fill="none" xmlns="http://www.w3.org/2000/svg"><path d="M16 0c-4.347 0-4.89.02-6.596.093C7.7.171 6.54.43 5.52.813a7.866 7.866 0 0 0-2.835 1.788A7.543 7.543 0 0 0 .84 5.348C.444 6.335.175 7.459.096 9.11.016 10.764 0 11.29 0 15.5c0 4.21.02 4.736.096 6.39.08 1.65.348 2.774.744 3.762A7.581 7.581 0 0 0 2.685 28.4a7.853 7.853 0 0 0 2.835 1.787c1.021.383 2.181.645 3.884.721 1.707.078 2.25.093 6.596.093 4.347 0 4.89-.02 6.596-.093 1.703-.078 2.864-.338 3.884-.72a7.893 7.893 0 0 0 2.835-1.788 7.55 7.55 0 0 0 1.845-2.747c.395-.988.665-2.113.744-3.762.08-1.654.096-2.18.096-6.39 0-4.21-.02-4.736-.096-6.39-.08-1.65-.35-2.776-.744-3.762A7.587 7.587 0 0 0 29.315 2.6 7.826 7.826 0 0 0 26.48.814C25.46.43 24.299.169 22.596.093 20.889.016 20.346 0 16 0Zm0 2.79c4.27 0 4.78.02 6.467.092 1.56.07 2.406.321 2.969.536.75.28 1.28.616 1.843 1.157a4.776 4.776 0 0 1 1.194 1.784c.219.545.48 1.365.551 2.876.076 1.636.093 2.127.093 6.265 0 4.139-.02 4.63-.098 6.265-.082 1.51-.342 2.331-.562 2.876-.298.726-.638 1.24-1.198 1.785-.559.541-1.099.877-1.84 1.158-.56.211-1.42.465-2.98.533-1.699.074-2.199.09-6.479.09-4.281 0-4.781-.019-6.479-.095-1.561-.079-2.421-.33-2.981-.544-.759-.29-1.28-.619-1.839-1.161-.561-.541-.92-1.064-1.2-1.783-.22-.542-.478-1.375-.56-2.886-.06-1.628-.081-2.13-.081-6.257 0-4.129.021-4.632.081-6.28.082-1.51.34-2.342.56-2.885.28-.736.639-1.24 1.2-1.784.559-.54 1.08-.89 1.839-1.16.56-.214 1.401-.466 2.961-.543 1.7-.058 2.2-.078 6.479-.078l.06.039Zm0 4.75c-4.54 0-8.216 3.566-8.216 7.96 0 4.398 3.68 7.96 8.216 7.96 4.54 0 8.216-3.566 8.216-7.96 0-4.398-3.68-7.96-8.216-7.96Zm0 13.127c-2.947 0-5.333-2.312-5.333-5.167s2.386-5.167 5.333-5.167 5.333 2.312 5.333 5.167-2.386 5.167-5.333 5.167Zm10.461-13.44c0 1.027-.861 1.86-1.92 1.86-1.06 0-1.92-.835-1.92-1.86 0-1.026.862-1.859 1.92-1.859 1.058-.001 1.92.833 1.92 1.859Z" fill="url(#a)"/><defs><linearGradient id="a" x1="16" y1="0" x2="16" y2="31" gradientUnits="userSpaceOnUse"><stop stop-color="#FFBF00"/><stop offset="1" stop-color="#F2A60C"/></linearGradient></defs></svg>