<svg width="32" height="31" fill="none" xmlns="http://www.w3.org/2000/svg"><path d="M32 15.594C32 6.982 24.836 0 16 0S0 6.982 0 15.594C0 23.378 5.85 29.83 13.5 31V20.102H9.437v-4.51H13.5V12.16c0-3.908 2.39-6.068 6.044-6.068 1.75 0 3.581.306 3.581.306v3.837h-2.018c-1.988 0-2.608 1.202-2.608 2.435v2.924h4.437l-.71 4.51H18.5V31C26.149 29.83 32 23.377 32 15.594Z" fill="url(#a)"/><defs><linearGradient id="a" x1="16" y1="0" x2="16" y2="31" gradientUnits="userSpaceOnUse"><stop stop-color="#FFBF00"/><stop offset="1" stop-color="#F2A60C"/></linearGradient></defs></svg>