<svg width="17" height="12" fill="none" xmlns="http://www.w3.org/2000/svg"><path d="M15.3 0H1.7C.764 0 .007.675.007 1.5L0 10.5c0 .825.765 1.5 1.7 1.5h13.6c.935 0 1.7-.675 1.7-1.5v-9c0-.825-.765-1.5-1.7-1.5Zm-.34 3.188L8.95 6.503a.947.947 0 0 1-.45.113.947.947 0 0 1-.45-.113L2.04 3.188a.702.702 0 0 1-.216-.169.608.608 0 0 1-.124-.229.564.564 0 0 1 .088-.492.68.68 0 0 1 .199-.184c.08-.05.169-.084.264-.102a.817.817 0 0 1 .554.096L8.5 5.25l5.695-3.142a.817.817 0 0 1 .818.006.68.68 0 0 1 .199.184.567.567 0 0 1 .088.492.609.609 0 0 1-.124.23.7.7 0 0 1-.216.168Z" fill="url(#a)"/><defs><linearGradient id="a" x1="8.5" y1="0" x2="8.5" y2="12" gradientUnits="userSpaceOnUse"><stop stop-color="#FFBF00"/><stop offset="1" stop-color="#F2A60C"/></linearGradient></defs></svg>