<svg width="17" height="18" fill="none" xmlns="http://www.w3.org/2000/svg"><path d="M8.5.286C3.825.286 0 4.112 0 8.786c0 4.675 3.825 8.5 8.5 8.5s8.5-3.825 8.5-8.5c0-4.674-3.825-8.5-8.5-8.5Zm3.017 11.73L8.05 9.884a.837.837 0 0 1-.408-.722V5.173a.655.655 0 0 1 .647-.637.643.643 0 0 1 .637.637v3.783l3.264 1.963a.651.651 0 0 1 .22.894.652.652 0 0 1-.892.204Z" fill="url(#a)"/><defs><linearGradient id="a" x1="8.5" y1=".286" x2="8.5" y2="17.286" gradientUnits="userSpaceOnUse"><stop stop-color="#FFBF00"/><stop offset="1" stop-color="#F2A60C"/></linearGradient></defs></svg>